<svg width="56" height="48" viewBox="0 0 56 48" fill="none" xmlns="http://www.w3.org/2000/svg">
<path d="M16.4898 31.5527C16.4898 31.5527 11.4326 38.5153 12.0527 38.9794C12.6728 39.4435 16.9335 38.7267 17.3772 38.9795C18.1919 39.4436 19.1521 43.4664 19.5958 43.6211C20.2216 43.8394 23.5892 36.6586 23.5892 36.6586M23.5892 36.6586C19.6846 34.8019 16.4898 31.5527 16.4898 31.5527C16.4898 31.5527 11.6977 27.3751 12.0527 19.9483C12.4077 12.5216 15.1912 8.51167 20.927 5.55913C27.1389 2.36148 36.6049 4.16661 40.4503 10.2008C45.7748 18.5559 43.5562 26.4469 42.2251 28.3036C41.7972 28.9005 39.6435 32.0168 39.6435 32.0168M23.5892 36.6586C25.0683 36.968 28.6476 37.4012 31.1323 36.6586C31.4089 36.5759 32.0198 36.3681 32.0198 36.3681M32.0198 36.3681C32.0198 36.3681 35.1257 41.6097 36.0132 43.6211C36.9006 45.6326 37.7879 38.9797 38.6754 38.9795C39.5629 38.9793 44 39.9078 44 38.9794C44 38.051 39.6435 32.0168 39.6435 32.0168M32.0198 36.3681C32.0198 36.3681 38.057 33.7452 39.6435 32.0168M23.1455 27.8392C22.2581 27.2859 23.905 22.7334 23.5892 21.805C23.2735 20.8767 19.5958 18.7879 20.0395 17.6275C20.217 17.1633 24.7328 17.6275 25.3641 17.1633C25.9954 16.6991 26.6952 12.1884 27.5826 12.0574C28.4701 11.9265 29.8012 16.6991 30.6886 17.1633C31.576 17.6275 34.9854 17.1871 35.1257 17.6275C35.5695 19.02 32.2202 21.3409 32.0198 22.2692C31.8194 23.1975 33.4926 27.3751 32.9072 27.8392C32.0198 28.5429 28.9138 25.0542 28.0263 25.0542C27.1389 25.0542 24.0329 28.3926 23.1455 27.8392Z" stroke="#F15703" stroke-width="2"/>
</svg>
