<svg width="40" height="40" viewBox="0 0 40 40" fill="none" xmlns="http://www.w3.org/2000/svg">
<path d="M26.8223 13C27.0794 13 27.2468 13.271 27.1318 13.501L21.4873 24.7891C20.8729 26.0178 19.2309 26.2752 18.2695 25.2939L14.7451 21.6963C14.5532 21.5003 14.5534 21.1864 14.7451 20.9902C14.9446 20.7866 15.2737 20.7881 15.4707 20.9941L17.7461 23.375L17.79 23.4307C18.6628 24.5293 20.3301 24.5316 21.2061 23.4355C21.297 23.3217 21.3768 23.1989 21.4434 23.0693L26.5146 13.1875C26.5739 13.0723 26.6927 13 26.8223 13Z" fill="#F15703" stroke="#F15703" stroke-width="2"/>
<path d="M20 0C16.0444 0 12.1776 1.17298 8.8886 3.37061C5.59962 5.56823 3.03617 8.69181 1.52242 12.3463C0.00866566 16.0009 -0.387401 20.0222 0.384303 23.9018C1.15601 27.7814 3.06082 31.3451 5.85787 34.1421C8.65492 36.9392 12.2186 38.844 16.0982 39.6157C19.9778 40.3874 23.9992 39.9913 27.6537 38.4776C31.3082 36.9638 34.4318 34.4004 36.6294 31.1114C38.827 27.8224 40 23.9556 40 20C40 14.6957 37.8929 9.60859 34.1421 5.85786C30.3914 2.10714 25.3043 0 20 0ZM20 37.1428C16.6095 37.1428 13.2951 36.1374 10.4759 34.2538C7.65682 32.3701 5.45958 29.6927 4.16207 26.5603C2.86457 23.4278 2.52509 19.981 3.18655 16.6556C3.84801 13.3302 5.48071 10.2756 7.87818 7.87817C10.2756 5.4807 13.3302 3.848 16.6556 3.18654C19.981 2.52508 23.4278 2.86456 26.5603 4.16206C29.6927 5.45957 32.3701 7.65681 34.2538 10.4759C36.1374 13.2951 37.1429 16.6095 37.1429 20C37.1429 24.5466 35.3367 28.9069 32.1218 32.1218C28.9069 35.3367 24.5466 37.1428 20 37.1428Z" fill="#F15703"/>
</svg>
