<svg width="140" height="103" viewBox="0 0 140 103" fill="none" xmlns="http://www.w3.org/2000/svg">
<path d="M93.75 61.6748V46.6748C93.75 44.1895 91.7353 42.1748 89.25 42.1748H84.75C84.75 42.1748 87.75 36.1748 81.75 36.1748C75.75 36.1748 78.75 42.1748 78.75 42.1748H74.25C71.7647 42.1748 69.75 44.1895 69.75 46.6748V51.1748C69.75 51.1748 75.75 48.1748 75.75 54.1748C75.75 60.1748 69.75 57.1748 69.75 57.1748V61.6748C69.75 64.1601 71.7647 66.1748 74.25 66.1748H89.25C91.7353 66.1748 93.75 64.1601 93.75 61.6748Z" fill="#F67405"/>
<path d="M50.25 42.1748H65.25C67.7353 42.1748 69.75 44.1895 69.75 46.6748V51.1748C69.75 51.1748 75.75 48.1748 75.75 54.1748C75.75 60.1748 69.75 57.1748 69.75 57.1748V61.6748C69.75 64.1601 67.7353 66.1748 65.25 66.1748H60.75C60.75 66.1748 63.75 60.1748 57.75 60.1748C51.75 60.1748 54.75 66.1748 54.75 66.1748H50.25C47.7647 66.1748 45.75 64.1601 45.75 61.6748V46.6748C45.75 44.1895 47.7647 42.1748 50.25 42.1748Z" fill="#DAD74C"/>
</svg>
