<svg width="173" height="118" viewBox="0 0 173 118" fill="none" xmlns="http://www.w3.org/2000/svg">
<rect width="173" height="51" rx="25.5" fill="#282119"/>
<circle cx="28" cy="25.5" r="12" fill="#FAFAFA"/>
<path d="M58.2 31C57.8053 31 57.608 30.8027 57.608 30.408V20.92C57.608 20.5253 57.8053 20.328 58.2 20.328C58.4027 20.328 58.6 20.4453 58.792 20.68L65.336 29.104H65.048V20.92C65.048 20.5253 65.2453 20.328 65.64 20.328C66.0293 20.328 66.224 20.5253 66.224 20.92V30.408C66.224 30.8027 66.0293 31 65.64 31C65.4267 31 65.2293 30.8827 65.048 30.648L58.496 22.224H58.784V30.408C58.784 30.8027 58.5893 31 58.2 31ZM69.8121 21.712C69.3535 21.712 69.1241 21.4773 69.1241 21.008V20.576C69.1241 20.1173 69.3535 19.888 69.8121 19.888H70.2441C70.6868 19.888 70.9081 20.1173 70.9081 20.576V21.008C70.9081 21.4773 70.6868 21.712 70.2441 21.712H69.8121ZM70.0281 31C69.6335 31 69.4361 30.8027 69.4361 30.408V23.656C69.4361 23.2667 69.6335 23.072 70.0281 23.072C70.4175 23.072 70.6121 23.2667 70.6121 23.656V30.408C70.6121 30.8027 70.4175 31 70.0281 31ZM75.7228 34.2C75.0828 34.2 74.5841 34.0693 74.2268 33.808C73.8694 33.5467 73.6454 33.1467 73.5548 32.608C73.5228 32.4107 73.5574 32.256 73.6588 32.144C73.7654 32.032 73.9201 31.976 74.1228 31.976C74.3041 31.976 74.4374 32.024 74.5228 32.12C74.6081 32.216 74.6774 32.36 74.7308 32.552C74.7841 32.7333 74.8854 32.856 75.0348 32.92C75.1894 32.9893 75.4188 33.024 75.7228 33.024H78.6988C79.1201 33.024 79.3974 32.952 79.5308 32.808C79.6694 32.6693 79.7388 32.392 79.7388 31.976V29.976C79.4668 30.3067 79.1148 30.56 78.6828 30.736C78.2508 30.912 77.7441 31 77.1628 31H76.5548C75.5148 31 74.7441 30.752 74.2428 30.256C73.7468 29.76 73.4988 28.9947 73.4988 27.96V26.12C73.4988 25.0693 73.7441 24.2987 74.2348 23.808C74.7308 23.3173 75.5041 23.072 76.5548 23.072H77.8668C78.2934 23.072 78.6614 23.1333 78.9708 23.256C79.2801 23.3733 79.5361 23.5573 79.7388 23.808V23.656C79.7388 23.2667 79.9361 23.072 80.3308 23.072C80.7201 23.072 80.9148 23.2667 80.9148 23.656V31.976C80.9148 32.7333 80.7334 33.2933 80.3708 33.656C80.0134 34.0187 79.4561 34.2 78.6988 34.2H75.7228ZM76.5548 29.824H77.1628C77.9094 29.824 78.5254 29.7227 79.0108 29.52C79.4961 29.312 79.7388 28.992 79.7388 28.56V25.536C79.7388 25.0453 79.5788 24.7093 79.2588 24.528C78.9388 24.3413 78.4748 24.248 77.8668 24.248H76.5548C75.8401 24.248 75.3468 24.3787 75.0748 24.64C74.8081 24.9013 74.6748 25.3947 74.6748 26.12V27.96C74.6748 28.664 74.8081 29.152 75.0748 29.424C75.3414 29.6907 75.8348 29.824 76.5548 29.824ZM84.575 31C84.1803 31 83.983 30.8027 83.983 30.408V20.376C83.983 19.9867 84.1803 19.792 84.575 19.792C84.9643 19.792 85.159 19.9867 85.159 20.376V24.088C85.703 23.4107 86.5643 23.072 87.743 23.072H88.191C89.231 23.072 89.999 23.32 90.495 23.816C90.991 24.312 91.239 25.08 91.239 26.12V30.408C91.239 30.8027 91.0443 31 90.655 31C90.2603 31 90.063 30.8027 90.063 30.408V26.12C90.063 25.4 89.927 24.9093 89.655 24.648C89.3883 24.3813 88.9003 24.248 88.191 24.248H87.743C87.039 24.248 86.4497 24.3413 85.975 24.528C85.5003 24.7093 85.2283 24.9973 85.159 25.392V30.408C85.159 30.8027 84.9643 31 84.575 31ZM97.6075 31C96.5782 31 95.8208 30.7573 95.3355 30.272C94.8502 29.7867 94.6075 29.032 94.6075 28.008V24.248H93.7675C93.3728 24.248 93.1755 24.0507 93.1755 23.656C93.1755 23.2667 93.3728 23.072 93.7675 23.072H94.6075V21.72C94.6075 21.3253 94.8022 21.128 95.1915 21.128C95.5862 21.128 95.7835 21.3253 95.7835 21.72V23.072H97.6795C98.0688 23.072 98.2635 23.2667 98.2635 23.656C98.2635 24.0507 98.0688 24.248 97.6795 24.248H95.7835V28.008C95.7835 28.712 95.9115 29.192 96.1675 29.448C96.4288 29.6987 96.9088 29.824 97.6075 29.824C97.7995 29.824 97.9462 29.872 98.0475 29.968C98.1488 30.0587 98.1995 30.2053 98.1995 30.408C98.1995 30.8027 98.0022 31 97.6075 31ZM114.118 23.064C115.078 23.064 115.766 23.296 116.182 23.76C116.598 24.224 116.806 24.9893 116.806 26.056V30.416C116.806 30.8053 116.611 31 116.222 31C115.827 31 115.63 30.8053 115.63 30.416V26.056C115.63 25.416 115.512 24.9547 115.278 24.672C115.043 24.384 114.656 24.24 114.118 24.24H113.462C112.822 24.24 112.363 24.384 112.086 24.672C111.814 24.9547 111.678 25.416 111.678 26.056V30.416C111.678 30.8053 111.483 31 111.094 31C110.699 31 110.502 30.8053 110.502 30.416V26.056C110.502 25.416 110.384 24.9547 110.15 24.672C109.915 24.384 109.528 24.24 108.99 24.24H108.334C107.694 24.24 107.235 24.384 106.958 24.672C106.686 24.9547 106.55 25.416 106.55 26.056V30.416C106.55 30.8053 106.355 31 105.966 31C105.571 31 105.374 30.8053 105.374 30.416V23.656C105.374 23.2667 105.571 23.072 105.966 23.072C106.355 23.072 106.55 23.2667 106.55 23.656V24.112C106.816 23.7387 107.115 23.472 107.446 23.312C107.782 23.1467 108.19 23.064 108.67 23.064H108.99C109.619 23.064 110.115 23.16 110.478 23.352C110.846 23.5387 111.128 23.8427 111.326 24.264C111.592 23.832 111.888 23.5253 112.214 23.344C112.539 23.1573 112.955 23.064 113.462 23.064H114.118ZM122.602 31C121.562 31 120.791 30.752 120.29 30.256C119.794 29.76 119.546 28.9947 119.546 27.96V26.12C119.546 25.0693 119.794 24.2987 120.29 23.808C120.791 23.312 121.562 23.0667 122.602 23.072H123.914C124.954 23.072 125.722 23.32 126.218 23.816C126.714 24.312 126.962 25.08 126.962 26.12V27.944C126.962 28.984 126.714 29.7547 126.218 30.256C125.722 30.752 124.954 31 123.914 31H122.602ZM120.722 27.96C120.722 28.6693 120.855 29.1573 121.122 29.424C121.388 29.6907 121.882 29.824 122.602 29.824H123.914C124.634 29.824 125.124 29.6907 125.386 29.424C125.652 29.1573 125.786 28.664 125.786 27.944V26.12C125.786 25.4 125.652 24.9093 125.386 24.648C125.124 24.3813 124.634 24.248 123.914 24.248H122.602C122.122 24.248 121.746 24.304 121.474 24.416C121.202 24.528 121.007 24.72 120.89 24.992C120.778 25.264 120.722 25.64 120.722 26.12V27.96ZM132.57 31C131.53 31 130.76 30.752 130.258 30.256C129.762 29.7547 129.514 28.984 129.514 27.944V26.12C129.514 25.08 129.762 24.312 130.258 23.816C130.76 23.32 131.53 23.072 132.57 23.072H135.754V20.376C135.754 19.9867 135.952 19.792 136.346 19.792C136.736 19.792 136.93 19.9867 136.93 20.376V30.408C136.93 30.8027 136.736 31 136.346 31C135.952 31 135.754 30.8027 135.754 30.408V30.104C135.509 30.3973 135.178 30.6213 134.762 30.776C134.346 30.9253 133.818 31 133.178 31H132.57ZM132.57 29.824H133.178C133.925 29.824 134.541 29.72 135.026 29.512C135.512 29.304 135.754 28.9867 135.754 28.56V24.248H132.57C131.85 24.248 131.357 24.384 131.09 24.656C130.824 24.9227 130.69 25.4107 130.69 26.12V27.944C130.69 28.664 130.824 29.1573 131.09 29.424C131.362 29.6907 131.856 29.824 132.57 29.824ZM140.847 27.512V27.96C140.847 28.6693 140.98 29.1573 141.247 29.424C141.513 29.6907 142.007 29.824 142.727 29.824H144.039C144.625 29.824 145.055 29.7627 145.327 29.64C145.604 29.512 145.783 29.2907 145.863 28.976C145.905 28.8 145.972 28.664 146.063 28.568C146.159 28.472 146.3 28.424 146.487 28.424C146.684 28.424 146.833 28.4773 146.935 28.584C147.036 28.6853 147.071 28.8347 147.039 29.032C146.937 29.6987 146.636 30.1947 146.135 30.52C145.639 30.84 144.94 31 144.039 31H142.727C141.687 31 140.916 30.752 140.415 30.256C139.919 29.76 139.671 28.9947 139.671 27.96V26.12C139.671 25.064 139.919 24.2907 140.415 23.8C140.916 23.304 141.687 23.0613 142.727 23.072H144.039C145.079 23.072 145.847 23.32 146.343 23.816C146.839 24.3067 147.087 25.0747 147.087 26.12V26.92C147.087 27.3147 146.892 27.512 146.503 27.512H140.847ZM142.727 24.248C142.007 24.2373 141.513 24.3653 141.247 24.632C140.98 24.8987 140.847 25.3947 140.847 26.12V26.336H145.911V26.12C145.911 25.4 145.777 24.9093 145.511 24.648C145.249 24.3813 144.759 24.248 144.039 24.248H142.727Z" fill="#FAFAFA"/>
<rect y="67" width="162" height="51" rx="25.5" fill="#FAFAFA"/>
<path d="M26.2 98C25.8053 98 25.608 97.8027 25.608 97.408V87.92C25.608 87.5253 25.8053 87.328 26.2 87.328H30.056C31.4267 87.328 32.432 87.6507 33.072 88.296C33.712 88.936 34.032 89.9413 34.032 91.312V94.016C34.032 95.3867 33.712 96.3947 33.072 97.04C32.4373 97.68 31.432 98 30.056 98H26.2ZM26.784 96.824H30.056C30.7493 96.824 31.3013 96.736 31.712 96.56C32.1227 96.384 32.416 96.0907 32.592 95.68C32.768 95.2693 32.856 94.7147 32.856 94.016V91.312C32.856 90.6187 32.768 90.0667 32.592 89.656C32.416 89.2453 32.1227 88.952 31.712 88.776C31.3013 88.5947 30.7493 88.504 30.056 88.504H26.784V96.824ZM39.3365 98C38.4618 98 37.8138 97.7893 37.3925 97.368C36.9712 96.9467 36.7605 96.2987 36.7605 95.424C36.7605 94.5493 36.9685 93.9013 37.3845 93.48C37.8058 93.0587 38.4565 92.848 39.3365 92.848H42.8005C42.7792 92.24 42.6298 91.8213 42.3525 91.592C42.0752 91.3627 41.6032 91.248 40.9365 91.248H40.0085C39.4272 91.248 38.9952 91.296 38.7125 91.392C38.4352 91.488 38.2485 91.656 38.1525 91.896C38.0778 92.088 37.9952 92.224 37.9045 92.304C37.8192 92.3787 37.6858 92.416 37.5045 92.416C37.3072 92.416 37.1525 92.3627 37.0405 92.256C36.9338 92.144 36.9018 91.9973 36.9445 91.816C37.0725 91.2133 37.3872 90.7733 37.8885 90.496C38.3898 90.2133 39.0965 90.072 40.0085 90.072H40.9365C41.9765 90.072 42.7445 90.32 43.2405 90.816C43.7365 91.312 43.9845 92.08 43.9845 93.12V97.408C43.9845 97.8027 43.7898 98 43.4005 98C43.0058 98 42.8085 97.8027 42.8085 97.408V96.904C42.2592 97.6347 41.4005 98 40.2325 98H39.3365ZM39.3365 96.824H40.2325C40.6645 96.824 41.0618 96.7813 41.4245 96.696C41.7872 96.6107 42.0912 96.4613 42.3365 96.248C42.5818 96.0347 42.7392 95.736 42.8085 95.352V94.024H39.3365C38.7872 94.024 38.4165 94.1227 38.2245 94.32C38.0325 94.512 37.9365 94.88 37.9365 95.424C37.9365 95.9733 38.0325 96.344 38.2245 96.536C38.4165 96.728 38.7872 96.824 39.3365 96.824ZM49.1095 101.2C48.3628 101.2 47.8055 101.013 47.4375 100.64C47.0748 100.272 46.8935 99.712 46.8935 98.96C46.8935 98.5707 47.0882 98.376 47.4775 98.376C47.8722 98.376 48.0695 98.5707 48.0695 98.96C48.0695 99.3867 48.1362 99.6693 48.2695 99.808C48.4082 99.952 48.6882 100.024 49.1095 100.024H52.1015C52.5228 100.024 52.8028 99.952 52.9415 99.808C53.0802 99.6693 53.1495 99.3867 53.1495 98.96V96.872C52.8348 97.3253 52.4588 97.6267 52.0215 97.776C51.5842 97.9253 51.0988 98 50.5655 98H49.8935C48.8642 98 48.1068 97.7573 47.6215 97.272C47.1362 96.7867 46.8935 96.0347 46.8935 95.016V90.656C46.8935 90.2613 47.0882 90.064 47.4775 90.064C47.8722 90.064 48.0695 90.2613 48.0695 90.656V95.016C48.0695 95.7093 48.1975 96.184 48.4535 96.44C48.7148 96.696 49.1948 96.824 49.8935 96.824H50.5655C51.4615 96.824 52.1148 96.6747 52.5255 96.376C52.9415 96.0773 53.1495 95.624 53.1495 95.016V90.656C53.1495 90.2613 53.3442 90.064 53.7335 90.064C54.1282 90.064 54.3255 90.2613 54.3255 90.656V98.96C54.3255 99.712 54.1415 100.272 53.7735 100.64C53.4055 101.013 52.8482 101.2 52.1015 101.2H49.1095ZM70.977 90.064C71.937 90.064 72.625 90.296 73.041 90.76C73.457 91.224 73.665 91.9893 73.665 93.056V97.416C73.665 97.8053 73.4703 98 73.081 98C72.6863 98 72.489 97.8053 72.489 97.416V93.056C72.489 92.416 72.3717 91.9547 72.137 91.672C71.9023 91.384 71.5157 91.24 70.977 91.24H70.321C69.681 91.24 69.2223 91.384 68.945 91.672C68.673 91.9547 68.537 92.416 68.537 93.056V97.416C68.537 97.8053 68.3423 98 67.953 98C67.5583 98 67.361 97.8053 67.361 97.416V93.056C67.361 92.416 67.2437 91.9547 67.009 91.672C66.7743 91.384 66.3877 91.24 65.849 91.24H65.193C64.553 91.24 64.0943 91.384 63.817 91.672C63.545 91.9547 63.409 92.416 63.409 93.056V97.416C63.409 97.8053 63.2143 98 62.825 98C62.4303 98 62.233 97.8053 62.233 97.416V90.656C62.233 90.2667 62.4303 90.072 62.825 90.072C63.2143 90.072 63.409 90.2667 63.409 90.656V91.112C63.6757 90.7387 63.9743 90.472 64.305 90.312C64.641 90.1467 65.049 90.064 65.529 90.064H65.849C66.4783 90.064 66.9743 90.16 67.337 90.352C67.705 90.5387 67.9877 90.8427 68.185 91.264C68.4517 90.832 68.7477 90.5253 69.073 90.344C69.3983 90.1573 69.8143 90.064 70.321 90.064H70.977ZM79.461 98C78.421 98 77.6503 97.752 77.149 97.256C76.653 96.76 76.405 95.9947 76.405 94.96V93.12C76.405 92.0693 76.653 91.2987 77.149 90.808C77.6503 90.312 78.421 90.0667 79.461 90.072H80.773C81.813 90.072 82.581 90.32 83.077 90.816C83.573 91.312 83.821 92.08 83.821 93.12V94.944C83.821 95.984 83.573 96.7547 83.077 97.256C82.581 97.752 81.813 98 80.773 98H79.461ZM77.581 94.96C77.581 95.6693 77.7143 96.1573 77.981 96.424C78.2477 96.6907 78.741 96.824 79.461 96.824H80.773C81.493 96.824 81.9837 96.6907 82.245 96.424C82.5117 96.1573 82.645 95.664 82.645 94.944V93.12C82.645 92.4 82.5117 91.9093 82.245 91.648C81.9837 91.3813 81.493 91.248 80.773 91.248H79.461C78.981 91.248 78.605 91.304 78.333 91.416C78.061 91.528 77.8663 91.72 77.749 91.992C77.637 92.264 77.581 92.64 77.581 93.12V94.96ZM89.4298 98C88.3898 98 87.6191 97.752 87.1178 97.256C86.6218 96.7547 86.3738 95.984 86.3738 94.944V93.12C86.3738 92.08 86.6218 91.312 87.1178 90.816C87.6191 90.32 88.3898 90.072 89.4298 90.072H92.6138V87.376C92.6138 86.9867 92.8111 86.792 93.2058 86.792C93.5951 86.792 93.7898 86.9867 93.7898 87.376V97.408C93.7898 97.8027 93.5951 98 93.2058 98C92.8111 98 92.6138 97.8027 92.6138 97.408V97.104C92.3684 97.3973 92.0378 97.6213 91.6218 97.776C91.2058 97.9253 90.6778 98 90.0378 98H89.4298ZM89.4298 96.824H90.0378C90.7844 96.824 91.4004 96.72 91.8858 96.512C92.3711 96.304 92.6138 95.9867 92.6138 95.56V91.248H89.4298C88.7098 91.248 88.2164 91.384 87.9498 91.656C87.6831 91.9227 87.5498 92.4107 87.5498 93.12V94.944C87.5498 95.664 87.6831 96.1573 87.9498 96.424C88.2218 96.6907 88.7151 96.824 89.4298 96.824ZM97.706 94.512V94.96C97.706 95.6693 97.8393 96.1573 98.106 96.424C98.3727 96.6907 98.866 96.824 99.586 96.824H100.898C101.485 96.824 101.914 96.7627 102.186 96.64C102.463 96.512 102.642 96.2907 102.722 95.976C102.765 95.8 102.831 95.664 102.922 95.568C103.018 95.472 103.159 95.424 103.346 95.424C103.543 95.424 103.693 95.4773 103.794 95.584C103.895 95.6853 103.93 95.8347 103.898 96.032C103.797 96.6987 103.495 97.1947 102.994 97.52C102.498 97.84 101.799 98 100.898 98H99.586C98.546 98 97.7753 97.752 97.274 97.256C96.778 96.76 96.53 95.9947 96.53 94.96V93.12C96.53 92.064 96.778 91.2907 97.274 90.8C97.7753 90.304 98.546 90.0613 99.586 90.072H100.898C101.938 90.072 102.706 90.32 103.202 90.816C103.698 91.3067 103.946 92.0747 103.946 93.12V93.92C103.946 94.3147 103.751 94.512 103.362 94.512H97.706ZM99.586 91.248C98.866 91.2373 98.3727 91.3653 98.106 91.632C97.8393 91.8987 97.706 92.3947 97.706 93.12V93.336H102.77V93.12C102.77 92.4 102.637 91.9093 102.37 91.648C102.109 91.3813 101.618 91.248 100.898 91.248H99.586Z" fill="#282119"/>
<circle cx="134" cy="92.5" r="12" fill="#282119"/>
</svg>
