<svg width="248" height="24" viewBox="0 0 248 24" fill="none" xmlns="http://www.w3.org/2000/svg">
<path d="M10.6667 24V13.3333H0V10.6667H10.6667V0H13.3333V10.6667H24V13.3333H13.3333V24H10.6667Z" fill="#282119"/>
<path d="M48 13.5V10.5H72V13.5H48Z" fill="#282119"/>
<path d="M108 20L96 7.02703L98.8 4L108 13.9459L117.2 4L120 7.02703L108 20Z" fill="#282119"/>
<path d="M160 12L147.027 24L144 21.2L153.946 12L144 2.8L147.027 0L160 12Z" fill="#282119"/>
<path d="M184 12L196.973 24L200 21.2L190.054 12L200 2.8L196.973 0L184 12Z" fill="#282119"/>
<path d="M227.368 24L224 20.6316L232.662 11.9699L224 3.36842L227.368 0L236.03 8.66165L244.632 0L248 3.36842L239.338 11.9699L248 20.6316L244.632 24L236.03 15.3383L227.368 24Z" fill="#282119"/>
</svg>
